<?xml version="1.0" encoding="UTF-8"?>
<svg id="Layer_1" data-name="Layer 1" xmlns="http://www.w3.org/2000/svg" viewBox="0 0 1474.56 1474.56">
  <defs>
    <style>
      .cls-1 {
        stroke: #231f20;
      }

      .cls-1, .cls-2 {
        fill: #231f20;
      }

      .cls-1, .cls-3 {
        stroke-miterlimit: 10;
        stroke-width: 2.99px;
      }

      .cls-2 {
        font-family: LoveloBlack, Lovelo;
        font-size: 164.05px;
        letter-spacing: .15em;
      }

      .cls-3 {
        fill: #faaf41;
        stroke: #faaf41;
      }
    </style>
  </defs>
  <path d="M1416.29,1005.52c-11.14,4.79-24.1,1.57-35.73,1.7-282.19,2.97-565.45.81-847.37.75l-469.21-.08c-5.64-4.23-5.77-10.17-6.19-17.25-1.94-32.73.07-66.98,0-99.45-.09-42.05.55-84.11.72-126.12.02-5.81-4.06-23.92,2.81-26.82,2.28-.96,11.17-1.74,14.23-1.91,28.49-1.59,60.26,1.34,89.45,1.22,387.06-1.65,772.74-1.16,1159.35,0,29.43.09,58.86-.19,88.29-.02,2.66.54,2.88,1.57,3.76,3.91.99,2.64,1.25,11.26,1.2,14.49-1.08,69.32.13,137.22-.75,206.53l-.56,43.05ZM1290.76,746.42c0-.76-.6-1.38-1.33-1.38s-1.33.62-1.33,1.38.6,1.38,1.33,1.38,1.33-.62,1.33-1.38ZM1209.76,750.92l2.12-1.68-1.6-1.67-.52,3.35ZM1226.97,749.81h-3.22v1.09h3.22v-1.09ZM1392.76,982.77v-221.24l-2.69-1.68c-23.69-.43-47.38.17-71.05.09-90.92-.31-183.55-.47-274.48-.14-274.37,1-549.01-2.03-822.58-1.11-40.46.14-81.69,1.33-122.72,1.22-5.44-.01-10.72-1.54-16.64-.06.97,3.93-.95,8.53-.96,11.86-.22,52.53.69,106.54.98,158.54.06,9.93-1.82,45.86,2.69,51.95.45.61.93,1.36,1.6,1.69,3.31,1.63,24.06.46,29.65.51,300.74,2.51,602.67-.34,903.14,0,121.35.14,243.74,3.88,364.1-.65,2.16-.08,8.01,2.23,8.97-.98ZM325.1,992.24c0-.76-.6-1.38-1.33-1.38s-1.33.62-1.33,1.38.6,1.38,1.33,1.38,1.33-.62,1.33-1.38ZM725.3,991.16c-6.65-1.19-1.34,4.84,0,3.34v-3.34ZM809.26,995.61v-2.22h-1.05v2.22h1.05ZM973.18,995.6c0-.76-.6-1.38-1.33-1.38s-1.33.62-1.33,1.38.6,1.38,1.33,1.38,1.33-.62,1.33-1.38ZM357.13,1002.32l2.12-1.68-1.6-1.67-.52,3.35ZM440,1003.44v-2.22h-1.05v2.22h1.05Z"/>
  <g>
    <g>
      <path class="cls-3" d="M277.94,465.9h13.45v216.96h-43.33l.3-119.24-54.69,57.38-54.69-57.38v119.24h-43.33v-216.96h13.75l84.27,93.84,84.27-93.84Z"/>
      <path class="cls-3" d="M384.01,682.86v-213.67h106.98v42.73h-64.25v42.73h56.18v42.73h-56.18v42.73h67.84v42.73h-110.57Z"/>
      <path class="cls-3" d="M642.79,682.86h-63.65v-213.67h63.65c142.25,0,142.25,213.67,0,213.67ZM621.87,511.92v128.2h20.92c83.08,0,83.08-128.2,0-128.2h-20.92Z"/>
      <path class="cls-3" d="M825.32,682.86v-213.67h42.73v213.67h-42.73Z"/>
      <path class="cls-3" d="M955.35,608.45v-139.26h42.73v138.96c0,44.83,69.33,44.83,69.33,0v-138.96h42.44v139.26c0,101.61-154.5,101.61-154.5,0Z"/>
      <path class="cls-3" d="M1365.35,465.9h13.45v216.96h-43.33l.3-119.24-54.69,57.38-54.69-57.38v119.24h-43.33v-216.96h13.75l84.27,93.84,84.27-93.84Z"/>
    </g>
    <g>
      <path class="cls-1" d="M72.04,689.43c-1.79,0-3.29-1.49-3.29-3.29v-216.96c0-1.79,1.49-3.29,3.29-3.29,2.09,0,3.89,1.49,3.89,3.29v216.96c0,1.79-1.79,3.29-3.89,3.29ZM248.95,466.5c1.49.9,1.79,3.29.9,4.78l-67.84,97.12c-.9,1.49-2.99,2.09-5.08.9-.3-.3-.6-.6-.9-.9l-67.54-97.12c-1.19-1.49-.6-3.89.9-4.78,1.5-1.19,3.59-.9,4.78.9l65.15,92.94,64.85-92.94c.9-1.79,3.29-2.09,4.78-.9ZM242.97,689.43c-2.09,0-3.59-1.49-3.59-3.29v-124.02l-57.38,82.18c-.9,1.49-2.99,1.79-5.08.9-.3-.3-.6-.6-.9-.9l-56.78-82.18v124.02c0,1.79-1.49,3.29-3.88,3.29-1.79,0-3.29-1.49-3.29-3.29v-135.08c0-3.59,4.48-4.78,6.57-2.09l60.66,86.96,60.66-86.66c2.09-3.29,6.28-1.79,6.28,1.79v135.08c0,1.79-1.49,3.29-3.29,3.29ZM286.01,689.43c-1.79,0-3.29-1.49-3.29-3.29v-216.96c0-1.79,1.49-3.29,3.29-3.29,2.09,0,3.58,1.49,3.58,3.29v216.96c0,1.79-1.49,3.29-3.58,3.29Z"/>
      <path class="cls-1" d="M485.01,686.15c0,1.79-1.49,3.29-3.29,3.29h-110.57c-2.09,0-3.59-1.49-3.59-3.29v-213.67c0-1.79,1.49-3.29,3.59-3.29h110.57c1.79,0,3.29,1.49,3.29,3.29,0,2.09-1.49,3.59-3.29,3.59h-107.28v206.5h107.28c1.79,0,3.29,1.49,3.29,3.59ZM485.01,515.21c0,2.09-1.49,3.59-3.29,3.59h-64.55v35.56h44.53c2.09,0,3.59,1.79,3.59,3.58s-1.49,3.59-3.59,3.59h-47.81c-2.09,0-3.59-1.79-3.59-3.59v-42.73c0-1.79,1.49-3.29,3.59-3.29h67.84c1.79,0,3.29,1.49,3.29,3.29ZM465.29,600.68c0,1.79-1.49,3.29-3.59,3.29h-44.53v35.86h64.55c1.79,0,3.29,1.49,3.29,3.59,0,1.79-1.49,3.29-3.29,3.29h-67.84c-2.09,0-3.59-1.49-3.59-3.29v-42.73c0-2.09,1.49-3.59,3.59-3.59h47.81c2.09,0,3.59,1.49,3.59,3.59Z"/>
      <path class="cls-1" d="M723.47,534.33c11.66,28.39,11.66,61.56,0,89.95-14.64,36.46-48.41,65.15-101.31,65.15h-21.52c-2.09,0-3.58-1.49-3.58-3.29,0-2.09,1.49-3.59,3.58-3.59h21.52c49.61,0,81.28-26.6,95.03-60.96,10.76-26.6,10.76-57.98,0-84.57-13.75-34.37-45.42-60.96-95.03-60.96h-60.37v210.09c0,1.79-1.49,3.29-3.59,3.29-1.79,0-3.29-1.49-3.29-3.29v-213.67c0-1.79,1.49-3.29,3.29-3.29h63.95c52.89,0,86.66,28.39,101.31,65.15ZM600.95,603.96c-1.79,0-3.59-1.49-3.59-3.29v-85.47c0-2.09,1.79-3.58,3.59-3.58h21.22c31.38,0,51.7,17.63,60.37,40.04,6.87,17.63,6.87,37.65,0,54.99-8.67,22.71-28.99,40.34-60.37,40.34h-21.22c-1.79,0-3.59-1.79-3.59-3.59s1.79-3.59,3.59-3.59h21.22c28.09,0,46.02-15.54,54.09-35.56,5.98-15.84,5.98-34.36,0-49.9-8.07-20.02-26-35.86-54.09-35.86h-17.63v82.18c0,1.79-1.79,3.29-3.59,3.29Z"/>
      <path class="cls-1" d="M805.94,689.43c-2.09,0-3.59-1.49-3.59-3.29v-213.67c0-1.79,1.49-3.29,3.59-3.29,1.79,0,3.29,1.49,3.29,3.29v213.67c0,1.79-1.49,3.29-3.29,3.29ZM848.67,689.43c-2.09,0-3.59-1.49-3.59-3.29v-213.67c0-1.79,1.49-3.29,3.59-3.29,1.79,0,3.29,1.49,3.29,3.29v213.67c0,1.79-1.49,3.29-3.29,3.29Z"/>
      <path class="cls-1" d="M1093.71,469.49c1.79,0,3.29,1.49,3.29,3.29v137.76c0,48.71-35.86,80.39-81.58,80.39s-81.58-33.17-81.58-80.39v-137.76c0-1.79,1.49-3.29,3.59-3.29,1.79,0,3.29,1.49,3.29,3.29v137.76c0,43.63,31.38,73.51,74.71,73.51s74.71-28.69,74.71-73.51v-137.76c0-1.79,1.49-3.29,3.59-3.29ZM977.16,472.77c0-1.79,1.49-3.29,3.29-3.29s3.29,1.49,3.29,3.29v135.37c0,18.83,13.15,32.28,31.68,32.28s31.68-13.45,31.68-32.28v-135.37c0-1.79,1.49-3.29,3.29-3.29,2.09,0,3.59,1.49,3.59,3.29v135.37c0,22.71-16.14,38.85-38.55,38.85s-38.25-16.14-38.25-38.85v-135.37Z"/>
      <path class="cls-1" d="M1182.45,689.43c-1.79,0-3.29-1.49-3.29-3.29v-216.96c0-1.79,1.5-3.29,3.29-3.29,2.09,0,3.88,1.49,3.88,3.29v216.96c0,1.79-1.79,3.29-3.88,3.29ZM1359.36,466.5c1.5.9,1.79,3.29.9,4.78l-67.84,97.12c-.9,1.49-2.99,2.09-5.08.9-.3-.3-.6-.6-.9-.9l-67.54-97.12c-1.2-1.49-.6-3.89.9-4.78,1.49-1.19,3.59-.9,4.78.9l65.15,92.94,64.85-92.94c.9-1.79,3.29-2.09,4.78-.9ZM1353.38,689.43c-2.09,0-3.59-1.49-3.59-3.29v-124.02l-57.38,82.18c-.9,1.49-2.99,1.79-5.08.9-.3-.3-.6-.6-.9-.9l-56.78-82.18v124.02c0,1.79-1.49,3.29-3.88,3.29-1.79,0-3.29-1.49-3.29-3.29v-135.08c0-3.59,4.49-4.78,6.57-2.09l60.67,86.96,60.66-86.66c2.09-3.29,6.28-1.79,6.28,1.79v135.08c0,1.79-1.49,3.29-3.29,3.29ZM1396.42,689.43c-1.79,0-3.29-1.49-3.29-3.29v-216.96c0-1.79,1.49-3.29,3.29-3.29,2.09,0,3.59,1.49,3.59,3.29v216.96c0,1.79-1.49,3.29-3.59,3.29Z"/>
    </g>
  </g>
  <text class="cls-2" transform="translate(170.61 933.54)"><tspan x="0" y="0">ART CENTER</tspan></text>
</svg>